<svg width="207" height="183" viewBox="0 0 207 183" fill="none" xmlns="http://www.w3.org/2000/svg">
<path fill-rule="evenodd" clip-rule="evenodd" d="M102.989 68.0541C102.112 67.7464 101.247 68.2312 100.275 69.1602C99.2902 70.1007 98.0924 71.5979 96.52 73.5634L96.5045 73.5828L84.729 88.3022L84.713 88.3222L84.7129 88.3222C83.5197 89.8138 82.605 90.9571 82.0647 91.8797C81.5236 92.8033 81.307 93.5901 81.6592 94.3228C82.0113 95.0554 82.761 95.3778 83.8202 95.5323C84.8782 95.6867 86.3423 95.6866 88.2524 95.6866H88.2525H88.2781H91.7357C92.7516 95.6866 93.4865 95.6872 94.047 95.7626C94.5998 95.8369 94.9427 95.9795 95.198 96.2348C95.4533 96.4901 95.5959 96.8329 95.6702 97.3857C95.7456 97.9462 95.7461 98.6812 95.7461 99.6971V106.099V106.123C95.7461 108.64 95.7461 110.558 95.9274 111.907C96.1064 113.24 96.4787 114.159 97.3559 114.467C98.2331 114.774 99.0977 114.29 100.07 113.36C101.055 112.42 102.253 110.923 103.825 108.957L103.84 108.938L115.616 94.2185L115.632 94.1985L115.632 94.1985C116.825 92.7069 117.74 91.5636 118.28 90.641C118.821 89.7173 119.038 88.9306 118.686 88.1979C118.334 87.4652 117.584 87.1429 116.525 86.9884C115.467 86.834 114.003 86.834 112.092 86.834H112.067H108.609C107.593 86.834 106.858 86.8335 106.298 86.7581C105.745 86.6838 105.402 86.5411 105.147 86.2859C104.892 86.0306 104.749 85.6877 104.675 85.1349C104.599 84.5744 104.599 83.8394 104.599 82.8236V76.4222V76.3973V76.3973C104.599 73.8803 104.599 71.9629 104.418 70.6134C104.238 69.2805 103.866 68.3617 102.989 68.0541Z" fill="url(#paint0_linear_1_148)"/>
<circle cx="33.8669" cy="91.2575" r="11.0509" stroke="url(#paint1_linear_1_148)" stroke-opacity="0.08" stroke-width="0.712963"/>
<circle cx="33.8669" cy="91.2575" r="17.8241" stroke="url(#paint2_linear_1_148)" stroke-opacity="0.12" stroke-width="1.42593"/>
<circle cx="33.8669" cy="91.2575" r="24.9537" stroke="url(#paint3_linear_1_148)" stroke-opacity="0.16" stroke-width="2.13889"/>
<circle cx="100.164" cy="26.0232" r="11.0509" transform="rotate(90 100.164 26.0232)" stroke="url(#paint4_linear_1_148)" stroke-opacity="0.08" stroke-width="0.712963"/>
<circle cx="100.164" cy="26.0232" r="17.8241" transform="rotate(90 100.164 26.0232)" stroke="url(#paint5_linear_1_148)" stroke-opacity="0.12" stroke-width="1.42593"/>
<circle cx="100.164" cy="26.0231" r="24.9537" transform="rotate(90 100.164 26.0231)" stroke="url(#paint6_linear_1_148)" stroke-opacity="0.16" stroke-width="2.13889"/>
<circle cx="100.172" cy="156.496" r="11.0509" transform="rotate(-90 100.172 156.496)" stroke="url(#paint7_linear_1_148)" stroke-opacity="0.08" stroke-width="0.712963"/>
<circle cx="100.172" cy="156.496" r="17.8241" transform="rotate(-90 100.172 156.496)" stroke="url(#paint8_linear_1_148)" stroke-opacity="0.12" stroke-width="1.42593"/>
<circle cx="100.172" cy="156.496" r="24.9537" transform="rotate(-90 100.172 156.496)" stroke="url(#paint9_linear_1_148)" stroke-opacity="0.16" stroke-width="2.13889"/>
<circle cx="11.4074" cy="11.4074" r="11.0509" transform="matrix(-1 0 0 1 176.822 79.8501)" stroke="url(#paint10_linear_1_148)" stroke-opacity="0.08" stroke-width="0.712963"/>
<circle cx="18.537" cy="18.537" r="17.8241" transform="matrix(-1 0 0 1 183.951 72.7205)" stroke="url(#paint11_linear_1_148)" stroke-opacity="0.12" stroke-width="1.42593"/>
<circle cx="26.0231" cy="26.0231" r="24.9537" transform="matrix(-1 0 0 1 191.438 65.2344)" stroke="url(#paint12_linear_1_148)" stroke-opacity="0.16" stroke-width="2.13889"/>
<defs>
<linearGradient id="paint0_linear_1_148" x1="100.382" y1="114.559" x2="123.332" y2="95.2784" gradientUnits="userSpaceOnUse">
<stop stop-color="#FFC657"/>
<stop offset="1" stop-color="#FFD977"/>
</linearGradient>
<linearGradient id="paint1_linear_1_148" x1="45.2743" y1="91.2575" x2="22.4595" y2="91.2575" gradientUnits="userSpaceOnUse">
<stop stop-color="white"/>
<stop offset="0.621142" stop-color="white" stop-opacity="0"/>
</linearGradient>
<linearGradient id="paint2_linear_1_148" x1="52.4039" y1="91.2575" x2="15.3298" y2="91.2575" gradientUnits="userSpaceOnUse">
<stop stop-color="white"/>
<stop offset="0.635367" stop-color="white" stop-opacity="0"/>
</linearGradient>
<linearGradient id="paint3_linear_1_148" x1="59.89" y1="91.2575" x2="7.84375" y2="91.2575" gradientUnits="userSpaceOnUse">
<stop stop-color="white"/>
<stop offset="0.589761" stop-color="white" stop-opacity="0"/>
</linearGradient>
<linearGradient id="paint4_linear_1_148" x1="111.572" y1="26.0232" x2="88.757" y2="26.0232" gradientUnits="userSpaceOnUse">
<stop stop-color="white"/>
<stop offset="0.621142" stop-color="white" stop-opacity="0"/>
</linearGradient>
<linearGradient id="paint5_linear_1_148" x1="118.701" y1="26.0232" x2="81.6273" y2="26.0232" gradientUnits="userSpaceOnUse">
<stop stop-color="white"/>
<stop offset="0.635367" stop-color="white" stop-opacity="0"/>
</linearGradient>
<linearGradient id="paint6_linear_1_148" x1="126.188" y1="26.0231" x2="74.1412" y2="26.0231" gradientUnits="userSpaceOnUse">
<stop stop-color="white"/>
<stop offset="0.589761" stop-color="white" stop-opacity="0"/>
</linearGradient>
<linearGradient id="paint7_linear_1_148" x1="111.579" y1="156.496" x2="88.7642" y2="156.496" gradientUnits="userSpaceOnUse">
<stop stop-color="white"/>
<stop offset="0.621142" stop-color="white" stop-opacity="0"/>
</linearGradient>
<linearGradient id="paint8_linear_1_148" x1="118.709" y1="156.496" x2="81.6345" y2="156.496" gradientUnits="userSpaceOnUse">
<stop stop-color="white"/>
<stop offset="0.635367" stop-color="white" stop-opacity="0"/>
</linearGradient>
<linearGradient id="paint9_linear_1_148" x1="126.195" y1="156.496" x2="74.1484" y2="156.496" gradientUnits="userSpaceOnUse">
<stop stop-color="white"/>
<stop offset="0.589761" stop-color="white" stop-opacity="0"/>
</linearGradient>
<linearGradient id="paint10_linear_1_148" x1="22.8148" y1="11.4074" x2="0" y2="11.4074" gradientUnits="userSpaceOnUse">
<stop stop-color="white"/>
<stop offset="0.621142" stop-color="white" stop-opacity="0"/>
</linearGradient>
<linearGradient id="paint11_linear_1_148" x1="37.0741" y1="18.537" x2="0" y2="18.537" gradientUnits="userSpaceOnUse">
<stop stop-color="white"/>
<stop offset="0.635367" stop-color="white" stop-opacity="0"/>
</linearGradient>
<linearGradient id="paint12_linear_1_148" x1="52.0463" y1="26.0231" x2="0" y2="26.0231" gradientUnits="userSpaceOnUse">
<stop stop-color="white"/>
<stop offset="0.589761" stop-color="white" stop-opacity="0"/>
</linearGradient>
</defs>
</svg>
